<svg height="375pt" viewBox="-12 1 375 375.505" width="375pt" xmlns="http://www.w3.org/2000/svg"><path d="m244.667969 68.933594c-3.460938 0-6.265625-2.804688-6.265625-6.265625v-56.402344c0-3.460937 2.804687-6.265625 6.265625-6.265625 3.460937 0 6.265625 2.804688 6.265625 6.265625v56.402344c.003906 3.460937-2.804688 6.265625-6.265625 6.265625zm0 0" fill="#e6e6e6"/><path d="m319.867188 68.933594c-3.460938 0-6.265626-2.804688-6.265626-6.265625v-56.402344c0-3.460937 2.804688-6.265625 6.265626-6.265625 3.460937 0 6.269531 2.804688 6.269531 6.265625v56.402344c0 3.460937-2.804688 6.265625-6.269531 6.265625zm0 0" fill="#e6e6e6"/><path d="m144.402344 307.066406h-112.800782c-13.84375 0-25.066406-11.222656-25.066406-25.066406v-38.855469c0-15.824219 1.730469-31.605469 5.164063-47.054687 4.847656-21.804688 4.546875-44.4375-.871094-66.105469-2.851563-11.414063-4.292969-23.132813-4.292969-34.894531v-63.757813c0-13.84375 11.222656-25.066406 25.066406-25.066406h112.800782c13.84375 0 25.066406 11.222656 25.066406 25.066406v63.757813c0 11.761718-1.441406 23.480468-4.292969 34.894531l-.394531 1.558594c-5.164062 20.667969-5.675781 42.222656-1.503906 63.113281l1.980468 9.882812c2.800782 14.003907 4.210938 28.253907 4.210938 42.539063v34.921875c0 13.84375-11.222656 25.066406-25.066406 25.066406zm0 0" fill="#f8cf26"/><path d="m31.601562 31.332031h112.800782v75.203125h-112.800782zm0 0" fill="#29abe2"/><path d="m138.136719 181.734375c0 27.6875-22.445313 50.132813-50.132813 50.132813s-50.132812-22.445313-50.132812-50.132813 22.445312-50.132813 50.132812-50.132813 50.132813 22.445313 50.132813 50.132813zm0 0" fill="#666"/><path d="m56.671875 150.402344.003906-.003906c5.1875-5.191407 13.605469-5.191407 18.796875 0l43.867188 43.871093c5.191406 5.1875 5.191406 13.605469 0 18.796875l-.003906.003906c-5.191407 5.1875-13.605469 5.1875-18.796876 0l-43.867187-43.871093c-5.191406-5.191407-5.191406-13.605469 0-18.796875zm0 0" fill="#4d4d4d"/><path d="m56.667969 269.464844c0 6.925781-5.609375 12.535156-12.53125 12.535156s-12.535157-5.609375-12.535157-12.535156c0-6.921875 5.613282-12.53125 12.535157-12.53125s12.53125 5.609375 12.53125 12.53125zm0 0" fill="#ed1c24"/><path d="m106.800781 269.464844c0 6.925781-5.609375 12.535156-12.53125 12.535156s-12.535156-5.609375-12.535156-12.535156c0-6.921875 5.613281-12.53125 12.535156-12.53125s12.53125 5.609375 12.53125 12.53125zm0 0" fill="#333"/><path d="m232.136719 350.933594h-125.335938c-10.363281 0-18.796875-8.433594-18.796875-18.800782v-62.667968c0-3.460938 2.804688-6.265625 6.265625-6.265625 3.460938 0 6.265625 2.804687 6.265625 6.265625v62.667968c0 3.457032 2.8125 6.265626 6.265625 6.265626h125.332031c3.460938 0 6.269532-2.808594 6.269532-6.265626v-75.199218c0-3.464844 2.800781-6.265625 6.265625-6.265625 3.460937 0 6.265625 2.800781 6.265625 6.265625v75.199218c.003906 10.367188-8.429688 18.800782-18.796875 18.800782zm0 0" fill="#666"/><path d="m307.335938 376h-250.667969c-10.367188 0-18.796875-8.433594-18.796875-18.800781v-87.734375c0-3.460938 2.804687-6.265625 6.265625-6.265625 3.460937 0 6.265625 2.804687 6.265625 6.265625v87.734375c0 3.457031 2.8125 6.265625 6.265625 6.265625h250.667969c3.457031 0 6.265624-2.808594 6.265624-6.265625v-100.265625c0-3.464844 2.800782-6.265625 6.265626-6.265625 3.464843 0 6.265624 2.800781 6.265624 6.265625v100.265625c.003907 10.367187-8.429687 18.800781-18.796874 18.800781zm0 0" fill="#c1272d"/><path d="m94.269531 43.867188c-4.640625.015624-9.109375 1.757812-12.535156 4.886718-7.636719-6.964844-19.476563-6.421875-26.441406 1.214844-3.167969 3.46875-4.910157 8.003906-4.890625 12.699219v12.53125c-.046875 10.339843 8.296875 18.757812 18.636718 18.800781 4.695313.023438 9.226563-1.722656 12.695313-4.886719 7.640625 6.964844 19.476563 6.421875 26.445313-1.214843 3.164062-3.46875 4.910156-8.003907 4.890624-12.699219v-12.53125c0-10.382813-8.417968-18.800781-18.800781-18.800781zm-25.066406 37.597656c-3.460937 0-6.269531-2.804688-6.269531-6.265625v-12.53125c0-3.460938 2.808594-6.269531 6.269531-6.269531s6.265625 2.808593 6.265625 6.269531v12.53125c0 3.460937-2.804688 6.265625-6.265625 6.265625zm31.332031-6.265625c0 3.460937-2.804687 6.265625-6.265625 6.265625-3.460937 0-6.265625-2.804688-6.265625-6.265625v-12.53125c0-3.460938 2.804688-6.269531 6.265625-6.269531 3.460938 0 6.265625 2.808593 6.265625 6.269531zm0 0" fill="#0378a3"/><path d="m119.335938 81.464844h12.535156v12.535156h-12.535156zm0 0" fill="#0378a3"/><path d="m269.734375 94h-12.53125v-25.066406h12.53125c3.460937 0 6.269531-2.804688 6.269531-6.265625 0-3.460938-2.808594-6.265625-6.269531-6.265625h-50.132813c-3.460937 0-6.265624 2.804687-6.265624 6.265625 0 3.460937 2.804687 6.265625 6.265624 6.265625h12.535157v25.066406h-12.535157c-3.460937 0-6.265624 2.804688-6.265624 6.265625s2.804687 6.269531 6.265624 6.269531h12.535157v150.398438c0 6.921875 5.609375 12.53125 12.53125 12.53125 6.925781 0 12.535156-5.609375 12.535156-12.53125v-150.398438h12.535156c3.460938 0 6.265625-2.808594 6.265625-6.269531s-2.808594-6.265625-6.269531-6.265625zm0 0"/><path d="m344.9375 94h-12.535156v-25.066406h12.535156c3.457031 0 6.265625-2.804688 6.265625-6.265625 0-3.460938-2.808594-6.265625-6.265625-6.265625h-50.132812c-3.460938 0-6.269532 2.804687-6.269532 6.265625 0 3.460937 2.808594 6.265625 6.269532 6.265625h12.53125v25.066406h-12.53125c-3.460938 0-6.269532 2.804688-6.269532 6.265625s2.808594 6.269531 6.269532 6.269531h12.53125v150.398438c0 6.921875 5.613281 12.53125 12.535156 12.53125s12.53125-5.609375 12.53125-12.53125v-150.398438h12.535156c3.460938 0 6.265625-2.808594 6.265625-6.269531s-2.808594-6.265625-6.265625-6.265625zm0 0" fill="#ed1c24"/><path d="m31.601562 112.800781h112.800782c3.460937 0 6.265625-2.804687 6.265625-6.265625v-75.203125c0-3.460937-2.804688-6.265625-6.265625-6.265625h-112.800782c-3.460937 0-6.265624 2.804688-6.265624 6.265625v75.203125c0 3.460938 2.804687 6.265625 6.265624 6.265625zm6.265626-75.199219h100.269531v62.664063h-100.269531zm0 0"/><path d="m88.003906 125.332031c-31.152344 0-56.402344 25.253907-56.402344 56.402344s25.25 56.398437 56.402344 56.398437c31.148438 0 56.398438-25.25 56.398438-56.398437-.035156-31.136719-25.265625-56.367187-56.398438-56.402344zm23.769532 86.4375c-2.75 2.738281-7.195313 2.738281-9.941407 0l-43.867187-43.867187c-2.742188-2.742188-2.742188-7.195313 0-9.9375 2.746094-2.746094 7.195312-2.746094 9.941406 0l43.867188 43.867187c2.742187 2.734375 2.75 7.179688.011718 9.925781-.003906.003907-.007812.007813-.011718.011719zm-67.636719-30.035156c.007812-3.464844.429687-6.917969 1.253906-10.285156.925781 1.96875 2.175781 3.765625 3.703125 5.316406l43.867188 43.863281c1.558593 1.527344 3.363281 2.777344 5.339843 3.699219-23.4375 5.777344-47.117187-8.539063-52.894531-31.976563-.859375-3.472656-1.285156-7.039062-1.269531-10.617187zm81.902343 21.757813c-.660156-3.988282-2.550781-7.664063-5.40625-10.523438l-43.867187-43.867188c-2.859375-2.855468-6.539063-4.742187-10.527344-5.402343 20.960938-12.0625 47.734375-4.851563 59.796875 16.113281 7.78125 13.519531 7.785156 30.15625.003906 43.679688zm0 0"/><path d="m344.9375 68.933594c3.457031 0 6.265625-2.804688 6.265625-6.265625 0-3.460938-2.808594-6.265625-6.265625-6.265625h-18.800781v-50.136719c0-3.460937-2.804688-6.265625-6.265625-6.265625-3.460938 0-6.269532 2.804688-6.269532 6.265625v50.132813h-18.796874c-3.460938 0-6.265626 2.804687-6.265626 6.265624 0 3.460938 2.804688 6.269532 6.265626 6.269532h6.265624v25.066406h-6.265624c-3.460938 0-6.265626 2.804688-6.265626 6.265625s2.804688 6.265625 6.265626 6.265625h6.265624v150.398438c.03125 7.941406 5.046876 15.003906 12.53125 17.648437v82.621094c0 3.460937-2.804687 6.265625-6.265624 6.265625h-250.667969c-3.460938 0-6.265625-2.804688-6.265625-6.265625v-43.867188h37.601562v18.800781c0 10.382813 8.417969 18.796876 18.800782 18.796876h125.332031c10.382812 0 18.800781-8.414063 18.800781-18.796876v-57.554687c7.484375-2.644531 12.5-9.707031 12.53125-17.648437v-150.394532h6.265625c3.460937 0 6.269531-2.808594 6.269531-6.269531s-2.808594-6.265625-6.269531-6.265625h-6.265625v-25.066406h6.265625c3.460937 0 6.269531-2.804688 6.269531-6.265625 0-3.460938-2.808594-6.265625-6.269531-6.265625h-18.796875v-50.136719c0-3.460937-2.808594-6.265625-6.269531-6.265625-3.457031 0-6.265625 2.804688-6.265625 6.265625v50.132813h-18.796875c-3.460938 0-6.269531 2.804687-6.269531 6.265624 0 3.460938 2.808593 6.269532 6.269531 6.269532h6.265625v25.066406h-6.265625c-3.460938 0-6.269531 2.804688-6.269531 6.265625s2.808593 6.265625 6.269531 6.265625h6.265625v150.398438c.03125 7.941406 5.046875 15.003906 12.53125 17.648437v57.554687c0 3.460938-2.804688 6.265626-6.265625 6.265626h-125.335938c-3.460937 0-6.265625-2.804688-6.265625-6.265626v-18.800781h43.867188c17.296875-.023437 31.3125-14.039062 31.332031-31.332031v-34.917969c0-14.703125-1.453125-29.367187-4.335937-43.78125l-1.972657-9.875c-3.96875-19.980469-3.480469-40.589843 1.433594-60.359375l.394531-1.566406c2.976563-11.910156 4.480469-24.136719 4.480469-36.410156v-63.757813c-.019531-17.292969-14.035156-31.3124998-31.332031-31.332031h-112.800782c-17.296874.0195312-31.3125 14.039062-31.332031 31.332031v63.757813c0 12.273437 1.507813 24.5 4.480469 36.410156 5.15625 20.730469 5.441406 42.371094.832031 63.230469-3.53125 15.894531-5.3125 32.132812-5.3125 48.414062v38.855469c.019531 17.296875 14.035157 31.3125 31.332031 31.332031h6.265626v43.867188c0 10.382812 8.417968 18.800781 18.800781 18.800781h250.667969c10.382812 0 18.800781-8.417969 18.800781-18.800781v-82.621094c7.484375-2.644531 12.5-9.707031 12.53125-17.644531v-150.398438h6.265625c3.460937 0 6.265625-2.808594 6.265625-6.269531s-2.804688-6.265625-6.265625-6.265625h-6.265625v-25.066406zm-106.535156 0h12.535156v25.066406h-12.535156zm12.535156 37.601562v150.398438c0 3.460937-2.808594 6.265625-6.269531 6.265625-3.457031 0-6.265625-2.804688-6.265625-6.265625v-150.398438zm-219.335938 194.265625c-10.382812 0-18.800781-8.417969-18.800781-18.800781v-38.851562c.007813-15.371094 1.6875-30.695313 5.015625-45.699219 5.03125-22.753907 4.722656-46.367188-.902344-68.980469-2.730468-10.917969-4.109374-22.125-4.113281-33.378906v-63.757813c0-10.382812 8.417969-18.796875 18.800781-18.796875h112.800782c10.382812 0 18.800781 8.414063 18.800781 18.796875v63.757813c-.003906 11.25-1.382813 22.457031-4.105469 33.371094l-.394531 1.566406c-5.359375 21.570312-5.894531 44.058594-1.566406 65.863281l1.972656 9.875c2.71875 13.605469 4.089844 27.445313 4.09375 41.316406v34.917969c0 10.382812-8.417969 18.800781-18.800781 18.800781h-43.867188v-13.6875c9.789063-3.460937 14.917969-14.203125 11.457032-23.992187-3.460938-9.789063-14.203126-14.917969-23.992188-11.457032-9.789062 3.460938-14.917969 14.203126-11.457031 23.992188 1.894531 5.355469 6.105469 9.566406 11.457031 11.457031v13.6875h-37.597656v-13.6875c9.789062-3.460937 14.917968-14.203125 11.457031-23.992187-3.460937-9.789063-14.203125-14.917969-23.992187-11.457032-9.789063 3.460938-14.917969 14.203126-11.457032 23.992188 1.894532 5.355469 6.105469 9.566406 11.457032 11.457031v13.6875zm62.667969-25.066406c-3.460937 0-6.265625-2.808594-6.265625-6.269531 0-3.457032 2.804688-6.265625 6.265625-6.265625 3.460938 0 6.265625 2.808593 6.265625 6.265625 0 3.460937-2.804687 6.269531-6.265625 6.269531zm-50.132812 0c-3.460938 0-6.265625-2.808594-6.265625-6.269531 0-3.457032 2.804687-6.265625 6.265625-6.265625 3.460937 0 6.265625 2.808593 6.265625 6.265625 0 3.460937-2.804688 6.269531-6.265625 6.269531zm282-18.800781c0 3.460937-2.804688 6.265625-6.265625 6.265625-3.460938 0-6.269532-2.804688-6.269532-6.265625v-150.398438h12.535157zm0-162.933594h-12.535157v-25.066406h12.535157zm0 0"/><path d="m94.269531 43.867188c-4.640625.015624-9.109375 1.757812-12.535156 4.886718-7.636719-6.964844-19.476563-6.421875-26.441406 1.214844-3.167969 3.46875-4.910157 8.003906-4.890625 12.699219v12.53125c-.046875 10.339843 8.296875 18.757812 18.636718 18.800781 4.695313.023438 9.226563-1.722656 12.695313-4.886719 7.640625 6.964844 19.476563 6.421875 26.445313-1.214843 3.164062-3.46875 4.910156-8.003907 4.890624-12.699219v-12.53125c0-10.382813-8.417968-18.800781-18.800781-18.800781zm-25.066406 37.597656c-3.460937 0-6.269531-2.804688-6.269531-6.265625v-12.53125c0-3.460938 2.808594-6.269531 6.269531-6.269531s6.265625 2.808593 6.265625 6.269531v12.53125c0 3.460937-2.804688 6.265625-6.265625 6.265625zm31.332031-6.265625c0 3.460937-2.804687 6.265625-6.265625 6.265625-3.460937 0-6.265625-2.804688-6.265625-6.265625v-12.53125c0-3.460938 2.804688-6.269531 6.265625-6.269531 3.460938 0 6.265625 2.808593 6.265625 6.269531zm0 0"/><path d="m119.335938 81.464844h12.535156v12.535156h-12.535156zm0 0"/></svg>